<svg width="96" height="44" viewBox="0 0 96 44" fill="none" xmlns="http://www.w3.org/2000/svg">
<g filter="url(#filter0_d_4182_21659)">
<rect x="2.5" y="1" width="91" height="40" rx="8" fill="#367A86"/>
<path d="M32.77 26.18C31.7 26.18 30.73 25.95 29.86 25.49C29 25.02 28.32 24.375 27.82 23.555C27.33 22.725 27.085 21.79 27.085 20.75C27.085 19.71 27.33 18.78 27.82 17.96C28.32 17.13 29 16.485 29.86 16.025C30.73 15.555 31.705 15.32 32.785 15.32C33.695 15.32 34.515 15.48 35.245 15.8C35.985 16.12 36.605 16.58 37.105 17.18L35.545 18.62C34.835 17.8 33.955 17.39 32.905 17.39C32.255 17.39 31.675 17.535 31.165 17.825C30.655 18.105 30.255 18.5 29.965 19.01C29.685 19.52 29.545 20.1 29.545 20.75C29.545 21.4 29.685 21.98 29.965 22.49C30.255 23 30.655 23.4 31.165 23.69C31.675 23.97 32.255 24.11 32.905 24.11C33.955 24.11 34.835 23.695 35.545 22.865L37.105 24.305C36.605 24.915 35.985 25.38 35.245 25.7C34.505 26.02 33.68 26.18 32.77 26.18ZM38.581 14.87H40.921V26H38.581V14.87ZM46.9327 26.12C46.0827 26.12 45.3177 25.945 44.6377 25.595C43.9677 25.235 43.4427 24.74 43.0627 24.11C42.6827 23.48 42.4927 22.765 42.4927 21.965C42.4927 21.165 42.6827 20.45 43.0627 19.82C43.4427 19.19 43.9677 18.7 44.6377 18.35C45.3177 17.99 46.0827 17.81 46.9327 17.81C47.7827 17.81 48.5427 17.99 49.2127 18.35C49.8827 18.7 50.4077 19.19 50.7877 19.82C51.1677 20.45 51.3577 21.165 51.3577 21.965C51.3577 22.765 51.1677 23.48 50.7877 24.11C50.4077 24.74 49.8827 25.235 49.2127 25.595C48.5427 25.945 47.7827 26.12 46.9327 26.12ZM46.9327 24.2C47.5327 24.2 48.0227 24 48.4027 23.6C48.7927 23.19 48.9877 22.645 48.9877 21.965C48.9877 21.285 48.7927 20.745 48.4027 20.345C48.0227 19.935 47.5327 19.73 46.9327 19.73C46.3327 19.73 45.8377 19.935 45.4477 20.345C45.0577 20.745 44.8627 21.285 44.8627 21.965C44.8627 22.645 45.0577 23.19 45.4477 23.6C45.8377 24 46.3327 24.2 46.9327 24.2ZM55.6368 26.12C54.9668 26.12 54.3118 26.04 53.6718 25.88C53.0318 25.71 52.5218 25.5 52.1418 25.25L52.9218 23.57C53.2818 23.8 53.7168 23.99 54.2268 24.14C54.7368 24.28 55.2368 24.35 55.7268 24.35C56.7168 24.35 57.2118 24.105 57.2118 23.615C57.2118 23.385 57.0768 23.22 56.8068 23.12C56.5368 23.02 56.1218 22.935 55.5618 22.865C54.9018 22.765 54.3568 22.65 53.9268 22.52C53.4968 22.39 53.1218 22.16 52.8018 21.83C52.4918 21.5 52.3368 21.03 52.3368 20.42C52.3368 19.91 52.4818 19.46 52.7718 19.07C53.0718 18.67 53.5018 18.36 54.0618 18.14C54.6318 17.92 55.3018 17.81 56.0718 17.81C56.6418 17.81 57.2068 17.875 57.7668 18.005C58.3368 18.125 58.8068 18.295 59.1768 18.515L58.3968 20.18C57.6868 19.78 56.9118 19.58 56.0718 19.58C55.5718 19.58 55.1968 19.65 54.9468 19.79C54.6968 19.93 54.5718 20.11 54.5718 20.33C54.5718 20.58 54.7068 20.755 54.9768 20.855C55.2468 20.955 55.6768 21.05 56.2668 21.14C56.9268 21.25 57.4668 21.37 57.8868 21.5C58.3068 21.62 58.6718 21.845 58.9818 22.175C59.2918 22.505 59.4468 22.965 59.4468 23.555C59.4468 24.055 59.2968 24.5 58.9968 24.89C58.6968 25.28 58.2568 25.585 57.6768 25.805C57.1068 26.015 56.4268 26.12 55.6368 26.12ZM68.7955 21.995C68.7955 22.025 68.7805 22.235 68.7505 22.625H62.6455C62.7555 23.125 63.0155 23.52 63.4255 23.81C63.8355 24.1 64.3455 24.245 64.9555 24.245C65.3755 24.245 65.7455 24.185 66.0655 24.065C66.3955 23.935 66.7005 23.735 66.9805 23.465L68.2255 24.815C67.4655 25.685 66.3555 26.12 64.8955 26.12C63.9855 26.12 63.1805 25.945 62.4805 25.595C61.7805 25.235 61.2405 24.74 60.8605 24.11C60.4805 23.48 60.2905 22.765 60.2905 21.965C60.2905 21.175 60.4755 20.465 60.8455 19.835C61.2255 19.195 61.7405 18.7 62.3905 18.35C63.0505 17.99 63.7855 17.81 64.5955 17.81C65.3855 17.81 66.1005 17.98 66.7405 18.32C67.3805 18.66 67.8805 19.15 68.2405 19.79C68.6105 20.42 68.7955 21.155 68.7955 21.995ZM64.6105 19.58C64.0805 19.58 63.6355 19.73 63.2755 20.03C62.9155 20.33 62.6955 20.74 62.6155 21.26H66.5905C66.5105 20.75 66.2905 20.345 65.9305 20.045C65.5705 19.735 65.1305 19.58 64.6105 19.58Z" fill="white"/>
<rect x="3" y="1.5" width="90" height="39" rx="7.5" stroke="#367A86"/>
</g>
<defs>
<filter id="filter0_d_4182_21659" x="0.5" y="0" width="95" height="44" filterUnits="userSpaceOnUse" color-interpolation-filters="sRGB">
<feFlood flood-opacity="0" result="BackgroundImageFix"/>
<feColorMatrix in="SourceAlpha" type="matrix" values="0 0 0 0 0 0 0 0 0 0 0 0 0 0 0 0 0 0 127 0" result="hardAlpha"/>
<feOffset dy="1"/>
<feGaussianBlur stdDeviation="1"/>
<feColorMatrix type="matrix" values="0 0 0 0 0.0627451 0 0 0 0 0.0941176 0 0 0 0 0.156863 0 0 0 0.05 0"/>
<feBlend mode="normal" in2="BackgroundImageFix" result="effect1_dropShadow_4182_21659"/>
<feBlend mode="normal" in="SourceGraphic" in2="effect1_dropShadow_4182_21659" result="shape"/>
</filter>
</defs>
</svg>
